<svg xmlns="http://www.w3.org/2000/svg" width="103" height="103" fill="none"><path d="M87.675 15.325A51 51 0 0 0 71.412 4.362C65.112 1.687 58.4.337 51.5.337s-13.612 1.35-19.912 4.025a51 51 0 0 0-16.262 10.963A51 51 0 0 0 4.362 31.588C1.687 37.888.337 44.6.337 51.5s1.35 13.612 4.025 19.912a51 51 0 0 0 10.963 16.263 51 51 0 0 0 16.263 10.963C37.9 101.3 44.6 102.662 51.5 102.662s13.613-1.35 19.913-4.025a51 51 0 0 0 16.263-10.963 51 51 0 0 0 10.962-16.263 50.97 50.97 0 0 0 4.025-19.912c0-6.9-1.35-13.612-4.025-19.912-2.575-6.1-6.263-11.562-10.962-16.262zM51.5 97.663c-12.325 0-23.925-4.8-32.638-13.525C10.137 75.425 5.337 63.825 5.337 51.5s4.8-23.925 13.525-32.638C27.587 10.138 39.175 5.337 51.5 5.337s23.925 4.8 32.637 13.525c8.725 8.725 13.525 20.312 13.525 32.638s-4.8 23.925-13.525 32.638C75.425 92.863 63.825 97.663 51.5 97.663z" fill="#ef4d29"/><circle cx="51.615" cy="51.385" fill="#ffd7de" r="37.753"/><path d="M80.7 22.3a41 41 0 0 0-29.2-12.087c-11.037 0-21.4 4.3-29.2 12.088a41 41 0 0 0-12.087 29.2c0 11.025 4.3 21.4 12.088 29.2S40.464 92.8 51.5 92.8s21.4-4.3 29.2-12.088S92.8 62.54 92.8 51.5a41.05 41.05 0 0 0-12.088-29.2zM51.5 87.787a36.09 36.09 0 0 1-25.662-10.625C18.975 70.312 15.212 61.2 15.212 51.5a36.07 36.07 0 0 1 10.625-25.662C32.687 18.975 41.8 15.213 51.5 15.213a36.07 36.07 0 0 1 25.663 10.625C84.025 32.688 87.787 41.8 87.787 51.5a36.07 36.07 0 0 1-10.625 25.663 36.02 36.02 0 0 1-25.663 10.625zM32.5 61c-2.196 0-3.816-.444-4.86-1.33s-1.566-1.965-1.566-3.233c0-1.204.36-2.176 1.076-2.916.718-.76 1.772-1.416 3.164-1.965l1.598 3.518c-.913.2-1.37.58-1.37 1.1 0 .338.163.623.5.856s.815.35 1.468.35c1.022 0 1.794-.222 2.316-.666s.783-.983.783-1.617c0-.592-.152-1.1-.457-1.553s-.783-.887-1.435-1.33c-.63-.444-1.468-.972-2.512-1.585-1.37-.803-2.435-1.5-3.197-2.124-.74-.613-1.26-1.215-1.566-1.807-.283-.613-.424-1.3-.424-2.06 0-.592.152-1.204.457-1.838.304-.655.728-1.257 1.272-1.807l3.784 2.124a2.97 2.97 0 0 0-.587.697 1.31 1.31 0 0 0-.228.729 1.52 1.52 0 0 0 .13.634c.087.17.272.37.555.602s.718.54 1.305.92l2.38 1.458c1.174.74 2.12 1.447 2.838 2.124.74.676 1.272 1.405 1.598 2.187.348.782.522 1.7.522 2.758 0 1.204-.315 2.24-.946 3.106s-1.5 1.532-2.642 1.997c-1.13.444-2.446.666-3.947.666zm18.75 0c-1.783 0-3.13-.37-4.045-1.1-.522-.423-.924-.972-1.207-1.648-.283-.697-.424-1.66-.424-2.884v-8.304c0-.718-.12-1.215-.36-1.5s-.772-.423-1.598-.444l.457-3.835c1.174.042 2.142.148 2.903.317s1.36.454 1.794.856c.37.338.642.76.815 1.268.196.486.294 1.3.294 2.4v2.694c.478-.127.913-.2 1.305-.254a7.23 7.23 0 0 1 1.076-.095c.805 0 1.5.074 2.12.222l1 .2a6.19 6.19 0 0 0 .848.063c.544 0 1.044-.095 1.5-.285.457-.2.88-.676 1.272-1.395l3.653 1.775c-.5 1.183-1.1 2.007-1.827 2.472a5.68 5.68 0 0 1-2.218.824c.174.528.26 1.088.26 1.68 0 1.437-.348 2.684-1.044 3.74-.696 1.035-1.63 1.838-2.805 2.4-1.153.55-2.414.824-3.784.824zm.26-3.486c.978 0 1.718-.338 2.218-1.014a3.79 3.79 0 0 0 .75-2.314c0-.888-.283-1.48-.848-1.775-.544-.296-1.13-.444-1.76-.444a4.27 4.27 0 0 0-1.076.127l-.913.222v2.82c0 .592.033 1.035.098 1.33.087.275.217.497.4.666.26.254.642.38 1.142.38zM81 52.8h-5.708v6.403h-5.12V52.8h-5.74v-4.374h5.74v-6.37h5.12v6.37H81V52.8z" fill="#db3755"/></svg>