<?xml version="1.0" encoding="utf-8"?>
<!-- Generator: Adobe Illustrator 22.1.0, SVG Export Plug-In . SVG Version: 6.00 Build 0)  -->
<svg version="1.1" id="Layer_1" xmlns="http://www.w3.org/2000/svg" xmlns:xlink="http://www.w3.org/1999/xlink" x="0px" y="0px"
	 viewBox="0 0 26.8 26.6" style="enable-background:new 0 0 26.8 26.6;" xml:space="preserve">
<style type="text/css">
	.st0{fill:#354303;}
	.st1{fill:#282B2D;}
</style>
<g id="red-left" transform="translate(-207.777 -72.206)">
	<path id="Path_1135" class="st0" d="M217.6,78.3c-0.2,0.6-0.6,0.6-1.1,0.6h-5.9c-1.9,0-3.2,0.6-2.7-1.6c0-0.2,0.1-0.3,0.1-0.5
		c0.7-2.6,3.6-3.5,5.7-3c1.1,0.2,2.1,0.9,2.7,1.9C216.7,76.3,217.8,77.5,217.6,78.3z"/>
	<path id="Path_1136" class="st1" d="M208.7,75.4c0-0.1,0.2-0.3,0.3-0.4l0.2-0.2c1.3-1.5,3.2-2.5,5.3-2.6h0l20.1,0v26.6
		c-2.5-0.1-5-0.6-7.2-1.7c-4.1-2-5.9-6.3-7.4-11c-1.6-4.9-4.7-12.9-10.2-11C209.4,75.2,209,75.4,208.7,75.4
		C208.6,75.6,208.6,75.5,208.7,75.4z"/>
</g>
<g>
	<defs>
		<rect id="SVGID_1_" x="63.4" y="-102.7" width="124" height="173.4"/>
	</defs>
	<clipPath id="SVGID_2_">
		<use xlink:href="#SVGID_1_"  style="overflow:visible;"/>
	</clipPath>
</g>
</svg>
