<?xml version="1.0" encoding="utf-8"?>
<!-- Generator: Adobe Illustrator 22.1.0, SVG Export Plug-In . SVG Version: 6.00 Build 0)  -->
<svg version="1.1" id="Layer_1" xmlns="http://www.w3.org/2000/svg" xmlns:xlink="http://www.w3.org/1999/xlink" x="0px" y="0px"
	 viewBox="0 0 26.8 26.6" style="enable-background:new 0 0 26.8 26.6;" xml:space="preserve">
<style type="text/css">
	.st0{fill:#354303;}
	.st1{fill:#787878;}
</style>
<g id="red-right" transform="translate(-256.625 -72.206)">
	<path id="Path_1133" class="st0" d="M274.8,75.7c0.6-1,1.6-1.7,2.7-1.9c2.1-0.5,5,0.4,5.7,3c0,0.2,0.1,0.3,0.1,0.5
		c0.5,2.2-0.8,1.6-2.7,1.6h-5.9c-0.5,0-0.9,0-1.1-0.6C273.4,77.5,274.5,76.3,274.8,75.7z"/>
	<path id="Path_1134" class="st1" d="M282.5,75.4c0-0.1-0.2-0.3-0.3-0.4l-0.2-0.2c-1.3-1.5-3.2-2.5-5.3-2.6h0l-20.1,0v26.6
		c2.5-0.1,5-0.6,7.2-1.7c4.1-2,5.9-6.3,7.4-11c1.6-4.9,4.7-12.9,10.2-11C281.8,75.2,282.1,75.4,282.5,75.4
		C282.5,75.6,282.5,75.5,282.5,75.4z"/>
</g>
</svg>
