<svg xmlns="http://www.w3.org/2000/svg" viewBox="0 0 64 64"><circle cx="32" cy="32" r="31.7" fill="#fff"/><path d="M14 19.1c5.5-3.6 12.8-3.4 18 .8 5.3-4.2 12.5-4.5 18-.8.7.5 1.1 1.2 1.1 2.1v22.5c0 .9-.4 1.6-1.1 2.1s-1.6.5-2.3.2c-4.6-2-10-1.6-14.3 1.1-.8.5-1.8.5-2.7 0-4.3-2.8-9.7-3.2-14.3-1.1-.8.3-1.6.3-2.3-.2S13 44.6 13 43.7V21.2c-.1-.9.3-1.6 1-2.1zm19.1 3.8v20.4c4.5-2.8 10.5-2.5 14.6-1.2V21.7c-5.1-3.3-10.2-1.9-14.6 1.2zm-2.2 20.5V22.9c-4.3-3.1-9.5-4.5-14.6-1.2v20.4c4.1-1.2 10.1-1.5 14.6 1.3z" fill="#acb1b8"/></svg>