<svg width="67" height="78" viewBox="0 0 67 78" fill="none" xmlns="http://www.w3.org/2000/svg">
<path d="M57.2485 41.9782C52.0292 35.044 41.0971 34.4666 32.8309 40.6885C24.5647 46.9104 22.0948 57.5756 27.3141 64.5097C32.5334 71.4439 43.4656 72.0213 51.7318 65.7994C59.9979 59.5775 62.4679 48.9124 57.2485 41.9782Z" fill="white"/>
<path d="M34.9583 20.7742C31.3313 15.9556 23.7226 15.5632 17.9637 19.8979C12.2048 24.2326 10.4765 31.6529 14.1035 36.4716C17.7305 41.2902 25.3393 41.6826 31.0982 37.3479C36.8571 33.0132 38.5853 25.5929 34.9583 20.7742Z" fill="white"/>
<path d="M18.2644 20.2974C23.8723 16.0764 31.1459 16.5406 34.5589 21.0749C37.9718 25.6092 36.4054 32.7273 30.7975 36.9484C25.1896 41.1694 17.916 40.7052 14.503 36.1709C11.0901 31.6366 12.6565 24.5185 18.2644 20.2974Z" stroke="black" stroke-opacity="0.08"/>
<path d="M18.0861 5.74582C15.6976 2.57255 10.6808 2.31884 6.88067 5.17915C3.08058 8.03946 1.93627 12.9306 4.32478 16.1039C6.71328 19.2772 11.7301 19.5309 15.5302 16.6706C19.3303 13.8103 20.4746 8.91908 18.0861 5.74582Z" fill="white"/>
<path d="M7.18136 5.57864C10.8313 2.83136 15.5127 3.15828 17.6866 6.04651C19.8606 8.93473 18.8794 13.5238 15.2295 16.2711C11.5796 19.0184 6.89822 18.6914 4.72426 15.8032C2.55031 12.915 3.53144 8.32592 7.18136 5.57864Z" stroke="black" stroke-opacity="0.08"/>
</svg>
