<svg xmlns="http://www.w3.org/2000/svg" width="55" height="56" fill="#ac2b8c"><path d="M37.387 38.726c-3.63 0-9.09-3.22-13.66-7.33C17.73 25.892 13.138 18.67 15.94 15.5c1.8-1.874 5.522-1.315 10.268 1.505a1.08 1.08 0 1 1-1.104 1.858c-4.115-2.443-6.8-2.695-7.57-1.9-1.14 1.288 1.247 6.955 7.648 12.832 6.56 5.9 12.278 7.68 13.48 6.364.668-.734.287-3.048-2.07-6.556-.335-.495-.204-1.166.294-1.5.49-.333 1.166-.206 1.5.294 2.814 4.18 3.48 7.455 1.876 9.22-.7.767-1.7 1.11-2.873 1.11z"/><path d="M4.81 56c-1.27 0-2.183-.272-2.783-.824a1.08 1.08 0 1 1 1.466-1.591c.033.03.38.294 1.65.245 6.7-.294 25.062-8.715 32.755-17.16.407-.44 1.09-.47 1.527-.072a1.08 1.08 0 0 1 .072 1.527c-8.27 9.078-27.202 17.556-34.26 17.865-.147.007-.3.01-.428.01z"/><path d="M2.568 55.334a1.08 1.08 0 0 1-.732-.285c-4.11-3.78 4.75-29.203 13.543-38.86.405-.44 1.09-.47 1.527-.072a1.08 1.08 0 0 1 .072 1.527C7.866 27.652.955 51.302 3.3 53.458a1.08 1.08 0 0 1 .064 1.527c-.213.232-.504.348-.795.348z"/><path d="M33.3 37.653h-.033C22.625 37.33 14.232 34.296 8.3 28.64c-.432-.412-.447-1.098-.035-1.53s1.098-.447 1.53-.035c5.6 5.35 13.294 8.106 23.52 8.417a1.08 1.08 0 0 1 1.047 1.113 1.08 1.08 0 0 1-1.08 1.048zm-8.937 7.494c-7.115 0-13.814-2.233-20-6.68a1.08 1.08 0 0 1-.247-1.51 1.09 1.09 0 0 1 1.509-.248c7.97 5.728 16.47 7.512 25.985 5.483a1.08 1.08 0 1 1 .451 2.112c-2.614.56-5.185.84-7.7.84zm-6.746 6.58c-6.4 0-11.716-1.505-15.8-4.485a1.08 1.08 0 1 1 1.271-1.749c3.955 2.875 9.277 4.244 15.68 4.056.605.042 1.096.45 1.1 1.05a1.08 1.08 0 0 1-1.05 1.111 37.22 37.22 0 0 1-1.2.017zm14.2-23.804a1.08 1.08 0 0 1-1.047-.813c-.178-.692-.655-1.578-1.118-2.437-1.054-1.955-2.496-4.632-.298-6.164 1.823-1.293 3.905.272 5.572 1.53.986.747 2.343 1.775 2.708 1.365.594-.644-.368-2.316-1.22-3.8-1.2-2.08-2.7-4.667-.537-6.274 2.1-1.582 4.453.294 6.348 1.806 1.766 1.407 3.085 2.356 3.887 1.845.16-.105.17-.173.175-.204.105-.65-1.172-2.27-2.018-3.344-.817-1.036-1.663-2.1-2.117-3.114-.245-.543-.004-1.183.54-1.43.543-.24 1.183-.007 1.43.54.344.763 1.107 1.73 1.843 2.665 1.394 1.77 2.713 3.443 2.454 5.03-.077.473-.333 1.146-1.128 1.668-2.176 1.4-4.428-.38-6.416-1.966-1.722-1.374-3.004-2.3-3.7-1.764-.574.427.132 1.762 1.1 3.462 1.164 2.014 2.6 4.52.94 6.333-1.694 1.843-3.953.14-5.605-1.102-1.045-.8-2.48-1.876-3.024-1.488-.578.403.06 1.707.958 3.37.524.973 1.065 1.977 1.308 2.923a1.08 1.08 0 0 1-.778 1.317c-.1.024-.182.035-.27.035zm-7.815-5.217a1.06 1.06 0 0 1-.484-.116 1.08 1.08 0 0 1-.482-1.451c2.938-5.873 4.742-12.65 5.36-20.15.05-.594.585-1.023 1.168-.988.594.05 1.037.572.988 1.168-.642 7.772-2.52 14.817-5.583 20.938-.188.38-.57.598-.966.598zm9.096 9.668c-.355 0-.703-.178-.9-.5a1.08 1.08 0 0 1 .329-1.494c5.765-3.7 12.598-6.245 20.307-7.595.585-.096 1.148.287 1.25.88a1.08 1.08 0 0 1-.879 1.251c-7.424 1.3-14 3.75-19.513 7.288a1.08 1.08 0 0 1-.583.17zm10.18-9.67c-.598 0-1.113-.482-1.113-1.08s.45-1.08 1.05-1.08h.064a1.08 1.08 0 1 1 0 2.161zm-8.85-14.5c-.27 0-.54-.112-.765-.335-.202-.226-.313-.495-.313-.763s.112-.54.313-.74c.45-.45 1.122-.427 1.527-.024.224.226.335.495.335.765s-.112.537-.313.763c-.224.224-.493.335-.785.335zm9.357 24.358a1.07 1.07 0 0 1-1.078-1.079 1.11 1.11 0 0 1 .313-.763c.427-.425 1.122-.403 1.527 0a1.07 1.07 0 0 1 .313.763c0 .3-.112.583-.313.763-.18.204-.47.316-.763.316zm9.67-17.48c-.3 0-.56-.136-.763-.338a1.07 1.07 0 0 1-.313-.763c0-.27.112-.54.3-.74.447-.425 1.144-.425 1.547-.022a1.15 1.15 0 0 1 .316.763 1.07 1.07 0 0 1-.316.763 1 1 0 0 1-.763.338zM49.26 8.33a1.07 1.07 0 0 1-1.076-1.078 1.07 1.07 0 0 1 .313-.763c.38-.403 1.122-.403 1.525 0a1.11 1.11 0 0 1 .316.763A1.07 1.07 0 0 1 49.26 8.33zm-26.726 2.22c-.3 0-.583-.112-.763-.313a1.12 1.12 0 0 1-.313-.763 1.07 1.07 0 0 1 .313-.763c.36-.38 1.144-.405 1.55 0 .18.202.313.493.313.763 0 .3-.134.56-.337.763-.178.202-.47.313-.763.313zm-3.75 1.8a1.08 1.08 0 0 1-1.061-.885c-.458-2.46-1.24-4.288-2.33-5.432-.4-.434-.392-1.118.04-1.53s1.118-.392 1.53.04c1.38 1.453 2.35 3.648 2.886 6.528a1.08 1.08 0 0 1-.866 1.26 1.03 1.03 0 0 1-.199.02zm33.268 24.804a1.06 1.06 0 0 1-.484-.116c-1.593-.795-3.883-1.15-7-1.093h-.022a1.08 1.08 0 1 1-.022-2.161c3.486-.072 6.096.362 8 1.32a1.08 1.08 0 0 1 .482 1.451c-.188.38-.57.598-.966.598z"/></svg>