<svg width="40" height="34" viewBox="0 0 40 34" fill="none" xmlns="http://www.w3.org/2000/svg">
<path d="M32.0415 0.400696H7.94773C7.94773 0.400696 7.89921 1.03459 7.89587 2.07535H32.0975C32.0962 1.03292 32.0415 0.400696 32.0415 0.400696Z" fill="#FFDA03"/>
<path d="M39.9875 2.9825H32.086C32.0954 2.65109 32.0978 2.35195 32.0975 2.07529H7.89589C7.89511 2.34282 7.89645 2.6305 7.90324 2.94912V2.9825H0.0129422C0.0129422 2.9825 -0.888488 18.6407 12.3547 18.0063L12.4549 17.9841C13.7792 19.709 15.4708 21.2559 17.6521 22.4022V28L20.0002 29.4595L22.3484 28V22.4022C24.5296 21.2559 26.2212 19.709 27.5455 17.9841L27.6457 18.0063C40.8778 18.6407 39.9875 2.9825 39.9875 2.9825ZM10.7856 15.3688C3.06222 15.1796 2.73949 5.74244 2.73949 5.74244H8.07017C8.35952 8.56914 9.09402 12.1192 10.7967 15.3688H10.7856ZM29.2148 15.3688H29.2038C30.9175 12.097 31.6409 8.52463 31.9302 5.68679V5.74244H37.2498C37.2498 5.74244 36.9271 15.1796 29.2148 15.3688Z" fill="#FFC601"/>
<path d="M20.0697 21.7688C18.1667 20.7673 16.4974 19.3538 15.1285 17.5733L14.8281 17.1727L14.1492 16.2379L13.5482 15.0694C11.8122 11.764 11.1556 8.1584 10.8996 5.72109L10.8328 5.01997L10.7438 3.81818C10.7438 3.81818 10.7327 2.96126 10.7327 2.91675H9.06335C9.06335 2.96126 9.07448 3.81818 9.07448 3.81818L9.16351 5.01997L9.23029 5.72109C9.48625 8.1584 10.1428 11.764 11.8789 15.0694L12.4799 16.2379L13.1587 17.1727L13.4592 17.5733C14.8281 19.3538 16.4974 20.7673 18.4004 21.7688L18.8233 21.9913V27.4334H20.4926V21.9913L20.0697 21.7688Z" fill="#FFDA03"/>
<path d="M28.2078 32.2098V28.0028H11.8494V32.9956" fill="#FFC601"/>
<path d="M30.096 31.613H9.96094V33.5994H30.096V31.613Z" fill="#EFAB00"/>
</svg>
