<svg xmlns="http://www.w3.org/2000/svg" viewBox="0 0 22 21" fill="#db3755"><path d="M10.8 20.2c-.3 0-.5-.1-.7-.3l-7.9-8.1c-2.6-2.6-2.6-6.7 0-9.4l.1-.1c2.4-2.2 6-2.4 8.4-.5 2.6-1.9 6.3-1.7 8.6.7 2.6 2.6 2.6 6.7 0 9.4L11.6 20c-.2.1-.5.2-.8.2zM6.9 2.4c-1.1 0-2.2.5-3.1 1.3l-.1.2a4.83 4.83 0 0 0 0 6.7l7.2 7.3 7.2-7.3a4.83 4.83 0 0 0 0-6.7c-1.8-1.8-4.7-1.9-6.4-.1l-.1.1c-.2.2-.4.3-.7.3s-.5-.1-.7-.3c-.9-1-2.1-1.5-3.3-1.5zm10.2 5.8a.94.94 0 0 1-1-1 1.47 1.47 0 0 0-1.5-1.5.94.94 0 0 1-1-1 .94.94 0 0 1 1-1c1.9 0 3.5 1.5 3.5 3.5 0 .5-.4 1-1 1z"/></svg>