<svg width="24" height="24" viewBox="0 0 24 24" fill="none" xmlns="http://www.w3.org/2000/svg">
<path d="M20.448 4.51201C18.144 2.11201 14.4 1.92001 11.808 3.84001C9.31201 1.92001 5.76001 2.11201 3.36001 4.32001L3.26401 4.41601C0.672007 7.10401 0.672007 11.232 3.26401 13.824L11.136 21.888C11.328 22.08 11.52 22.176 11.808 22.176C12.096 22.176 12.384 22.08 12.576 21.984L20.448 13.92C23.04 11.232 23.04 7.10401 20.448 4.51201ZM18.144 10.176C17.568 10.176 17.184 9.79201 17.184 9.21601C17.184 8.35201 16.512 7.68001 15.648 7.68001C15.072 7.68001 14.688 7.29601 14.688 6.72001C14.688 6.14401 15.072 5.76001 15.648 5.76001C17.568 5.76001 19.104 7.29601 19.104 9.21601C19.104 9.69601 18.72 10.176 18.144 10.176Z" fill="white"/>
</svg>
