<svg width="22" height="21" viewBox="0 0 22 21" fill="none" xmlns="http://www.w3.org/2000/svg">
<path d="M10.808 20.176C10.52 20.176 10.328 20.08 10.136 19.888L2.264 11.824C-0.328 9.23201 -0.328 5.10401 2.264 2.41601L2.36 2.32001C4.76 0.112008 8.312 -0.0799917 10.808 1.84001C13.4 -0.0799917 17.144 0.112008 19.448 2.51201C22.04 5.10401 22.04 9.23201 19.448 11.92L11.576 19.984C11.384 20.08 11.096 20.176 10.808 20.176ZM6.872 2.41601C5.816 2.41601 4.664 2.89601 3.8 3.76001L3.704 3.85601C1.88 5.77601 1.88 8.65601 3.704 10.576L10.904 17.872L18.104 10.576C19.928 8.65601 19.928 5.77601 18.104 3.85601C16.28 2.03201 13.4 1.93601 11.672 3.76001L11.576 3.85601C11.384 4.04801 11.192 4.14401 10.904 4.14401C10.616 4.14401 10.424 4.04801 10.232 3.85601C9.272 2.89601 8.12 2.41601 6.872 2.41601Z" fill="white"/>
<path d="M17.144 8.17601C16.568 8.17601 16.184 7.79201 16.184 7.21601C16.184 6.35201 15.512 5.68001 14.648 5.68001C14.072 5.68001 13.688 5.29601 13.688 4.72001C13.688 4.14401 14.072 3.76001 14.648 3.76001C16.568 3.76001 18.104 5.29601 18.104 7.21601C18.104 7.69601 17.72 8.17601 17.144 8.17601Z" fill="white"/>
</svg>
