<svg xmlns="http://www.w3.org/2000/svg" width="20" height="22" fill="none"><path d="M19.024 6.968L10.576.44c-.384-.288-.864-.288-1.152 0L.976 6.968c-.192.192-.384.48-.384.768v12.96c0 .576.384.96.96.96h16.8c.576 0 .96-.384.96-.96V7.736c.096-.288-.096-.576-.288-.768zm-12 12.768v-8.16c0-.192.192-.384.384-.384h5.184c.192 0 .384.192.384.384v8.16H7.024zm10.464 0h-2.592v-8.16a2.34 2.34 0 0 0-2.304-2.304H7.408a2.34 2.34 0 0 0-2.304 2.304v8.16H2.512V8.216L10 2.456l7.488 5.76v11.52z" fill="#db3755"/></svg>