<svg xmlns="http://www.w3.org/2000/svg" width="25" height="25" fill="none"><path d="M21.72 18.647l-1.827-1.718V9.46c0-3.57-2.8-6.477-6.463-6.874V1.86c0-.463-.42-.86-.913-.86s-.913.397-.913.86v.727C7.95 2.983 5.14 5.89 5.14 9.46v7.535l-1.827 1.718c-.28.264-.422.727-.21 1.058.14.397.562.595.984.595h4.567c0 1.983 1.756 3.635 3.864 3.635s3.864-1.652 3.864-3.635h4.567c.42 0 .843-.264.983-.595.14-.396.07-.86-.21-1.123zm-9.203 3.37c-.984 0-1.756-.727-1.756-1.652h3.513c0 .86-.773 1.652-1.756 1.652zm-5.9-3.635l.28-.264c.21-.264.35-.53.35-.727V9.46c0-2.7 2.39-4.957 5.27-4.957s5.27 2.18 5.27 4.957v7.93c0 .264.14.53.28.727l.28.264H6.614z" fill="#fff"/></svg>