<svg xmlns="http://www.w3.org/2000/svg" width="38" height="36" fill="none"><path d="M34.3 0l-4.35 9.55L38 17.873l-.63 3.03-4.193 1.862s-1.176-3.51-5.185-3.63-4.035-1.73-4.035-1.73l.88 1.635s-1.834 4.68-1.13 8.6c.73 4.098 1.46 3.984 2.524 8.37 0 0-6.92-5.333-15.142-2.03S0 33.81 0 33.81s5.69 1.922 10.134-10.39c0 0-1.48.894-3.667.394 0 0 2.662-.868 6.355-9.003 3.805-8.39 10.574-6.38 10.574-6.38s-.756-3.037-1.794-3.758c0 0 2.918.727 4.147 3.137 0 0 .006-1.875-1.222-3.077 0 0 2.274.52 3.7 2.743L34.3 0z" fill="#fff"/></svg>