<svg xmlns="http://www.w3.org/2000/svg" width="157" height="84" fill="#fff"><path d="M62.922 53.44c1.517-1.162 3.034-1.733 4.53-1.733s2.72.6 3.704 1.792c.965 1.182 1.458 2.915 1.458 5.18 0 3.605-.985 6.678-2.955 9.2s-4.334 3.782-7.112 3.782c-.985 0-2-.197-2.994-.57 2.364-.55 4.235-2.088 5.634-4.57 1.4-2.502 2.088-4.984 2.088-7.466 0-1.162-.217-2.088-.63-2.817s-1.024-1.083-1.793-1.083c-1.458 0-2.758.886-3.9 2.66-1.123 1.773-2 4.215-2.6 7.308s-.906 6.303-.906 9.672.236 6.264.73 8.746c-1.97-.08-3.428-.394-4.373-.965s-1.418-1.635-1.418-3.23c0-.57.374-3.624 1.103-9.14s1.103-9.77 1.103-12.745-.177-5.496-.532-7.544c1.93.473 3.25 1.38 3.98 2.66.73 1.3 1.103 3.2 1.103 5.693.985-2.05 2.246-3.664 3.782-4.826zm22.103-8.076c-1.103 0-2 .335-2.72.985-.73.67-1.083 1.595-1.083 2.797s.315 2.285.926 3.23 1.38 1.753 2.265 2.423l2.955 2.147 2.955 2.187a9.22 9.22 0 0 1 2.266 2.54c.6 1.004.926 2.088.926 3.2 0 2.226-.906 4.136-2.738 5.673-1.832 1.556-4.216 2.324-7.2 2.324s-5.32-.63-7.053-1.9-2.6-2.718-2.6-4.334.473-2.876 1.438-3.762c.965-.906 2.206-1.36 3.723-1.36.433 0 .847.04 1.22.138-.75 1.103-1.123 2.305-1.123 3.585s.394 2.383 1.182 3.3 1.852 1.38 3.152 1.38 2.403-.335 3.3-1.024 1.34-1.556 1.34-2.64c0-1.064-.296-2-.906-2.837a9.09 9.09 0 0 0-2.226-2.108L82.1 59.3a36.63 36.63 0 0 1-2.916-2.285c-.887-.768-1.635-1.753-2.226-2.935-.6-1.182-.906-2.502-.906-3.92 0-2.285.827-4.097 2.482-5.456s3.9-2.03 6.698-2.03c2.817 0 4.945.63 6.402 1.9s2.187 2.6 2.187 4.038-.453 2.64-1.38 3.605c-.906.965-2.147 1.458-3.723 1.458-.532 0-1.044-.04-1.556-.138 1.182-1.24 1.773-2.56 1.773-3.94s-.394-2.443-1.162-3.152c-.75-.7-1.674-1.083-2.758-1.083zm20.645 8.608c1.675-1.87 3.25-2.797 4.7-2.797s2.482.433 3.092 1.32.926 2.068.926 3.565-.236 3.605-.7 6.323-.7 4.688-.7 5.93.158 2.147.473 2.7c.315.57.847 1.044 1.595 1.458l-1.34.04c-2.03 0-3.448-.315-4.314-.945-.847-.63-1.28-1.714-1.28-3.3 0-.886.237-2.62.73-5.2.473-2.58.73-4.5.73-5.8 0-1.596-.473-2.383-1.438-2.383-.57 0-1.222.315-1.9.965s-1.36 1.537-2 2.66c-.63 1.123-1.163 2.56-1.596 4.314a21.83 21.83 0 0 0-.65 5.24c0 1.734.08 3.033.216 3.88l-1.516.08c-1.38 0-2.364-.236-2.955-.7-.6-.473-.906-1.22-.906-2.246s.197-3.014.6-5.9c1.3-8.943 1.95-15.74 1.95-20.368 0-2.088-.138-3.506-.433-4.215 1.812.473 3.034 1.202 3.704 2.186.67.965.985 2.344.985 4.137 0 1.202-.237 3.723-.7 7.564l-.945 8.372c.768-2.718 2-5.003 3.703-6.875zm40.64-.512c1.517-1.162 3.034-1.733 4.53-1.733s2.72.6 3.704 1.792c.965 1.182 1.458 2.915 1.458 5.18 0 3.605-.985 6.678-2.955 9.2s-4.334 3.782-7.112 3.782c-.985 0-2-.197-2.994-.57 2.364-.55 4.235-2.088 5.634-4.57 1.398-2.502 2.088-4.984 2.088-7.466 0-1.162-.217-2.088-.63-2.817s-1.025-1.083-1.793-1.083c-1.458 0-2.758.886-3.9 2.66-1.123 1.773-2 4.215-2.6 7.308s-.906 6.303-.906 9.672c0 3.35.236 6.264.73 8.746-1.97-.08-3.428-.394-4.374-.965s-1.418-1.635-1.418-3.23c0-.57.374-3.624 1.103-9.14s1.103-9.77 1.103-12.745-.177-5.496-.532-7.544c1.93.473 3.25 1.38 3.98 2.66.73 1.3 1.103 3.2 1.103 5.693.985-2.068 2.265-3.683 3.782-4.826zm-96.233 2.423c0-.02-.217-.355-.315-.512-.197-.276-.414-.512-.6-.75-3.94-4.57-8.688-2.443-11.032-.886-.768.512-1.477 1.123-1.477 1.123a11.82 11.82 0 0 0-1.773 2.127c-1.497 2.324-2.226 5.003-2.226 8.037s.768 5.378 2.325 6.993 3.37 2.442 5.457 2.442c1.497 0 2.857-.276 4.117-.827 2.206-.965 3.92-2.7 5.122-5.22 1.084-2.226 1.615-4.688 1.615-7.347 0-2.088-.414-3.82-1.202-5.18zm-4.945 12.863c-1.005 2.108-2.325 3.152-3.94 3.152-3.86 0-3.704-6.5-3.132-9.04.6-2.6 2.62-6.973 5.752-6.973 1.87 0 2.817 1.93 2.817 5.772.02 2.62-.473 4.984-1.497 7.1zm88.748-12.863c0-.02-.217-.355-.316-.512-.197-.276-.413-.512-.6-.75-3.94-4.57-8.688-2.443-11.032-.886-.768.512-1.478 1.123-1.478 1.123a11.83 11.83 0 0 0-1.773 2.127c-1.497 2.324-2.226 5.003-2.226 8.037s.77 5.378 2.325 6.993 3.37 2.442 5.457 2.442c1.497 0 2.856-.276 4.117-.827 2.206-.965 3.92-2.7 5.122-5.22 1.083-2.226 1.615-4.688 1.615-7.347-.02-2.088-.413-3.82-1.2-5.18zm-4.827 12.922c-.847 1.793-2.127 3.093-4.058 3.093-3.093 0-3.467-3.98-3.388-6.284.118-3.033 1.024-6.993 3.585-8.884a4.06 4.06 0 0 1 2.443-.827c2.324 0 2.68 2.955 2.777 4.708.158 1.97-.118 5.575-1.36 8.194zm-99.68 3.408c-.02-.6.02-1.182.1-1.773a26.16 26.16 0 0 0 .197-3.191c0-1.733-.355-2.994-1.024-3.743-.7-.748-1.9-1.123-3.625-1.123a17.27 17.27 0 0 0-2.029.118l-.197.02.118 1.556.06 1.34c0 3.467-.886 6.264-2.62 8.332-1.734 2.05-3.763 3.093-6.028 3.093s-4.196-1.044-5.752-3.112c-1.576-2.088-2.364-5.003-2.364-8.667 0-3.703.552-7.288 1.635-10.676s2.72-6.303 4.827-8.687c2.088-2.364 4.452-3.546 7.013-3.546 1.9 0 3.408.512 4.452 1.536s1.556 2.324 1.556 3.86-.57 2.915-1.694 4.097-2.7 1.773-4.7 1.773c-.847 0-1.753-.118-2.7-.374l-.57-.138.335.473c1.556 2.147 3.88 3.23 6.934 3.23 2.108 0 3.94-.748 5.477-2.245s2.305-3.585 2.305-6.205-.906-4.885-2.68-6.756c-1.793-1.852-4.413-2.797-7.8-2.797-3.37 0-6.422.75-9.062 2.226a18.67 18.67 0 0 0-6.48 5.988C1.694 51.885 0 57.972 0 64.905c0 5.043 1.22 9.04 3.644 11.878 2.423 2.856 5.398 4.294 8.845 4.294.335 0 .7-.02 1.123-.06h.04c.197 0 4.826 0 9.712-5.26v.02l.315-.374a21.96 21.96 0 0 0 .906-1.083c.02.02.02.06.04.08.57 1.36 1.32 2.285 2.088 2.935 2.07 1.694 4.354 1.34 4.354 1.34-1.36-1.202-1.655-4.412-1.694-6.46zM104.922 0L99.82 11l9.436 9.613-.73 3.486-4.925 2.147s-1.38-4.058-6.087-4.196-4.728-2-4.728-2l1.024 1.9s-2.147 5.397-1.32 9.908c.867 4.727 1.714 4.6 2.955 9.652 0 0-8.116-6.146-17.75-2.344-9.633 3.82-12.982-.197-12.982-.197s6.66 2.226 11.88-11.996c0 0-1.734 1.024-4.295.453 0 0 3.113-1.005 7.447-10.38 4.472-9.672 12.4-7.367 12.4-7.367s-.886-3.506-2.108-4.334c0 0 3.428.847 4.866 3.624 0 0 0-2.167-1.438-3.546a7.77 7.77 0 0 0 4.334 3.17L104.922 0z"/></svg>