<svg xmlns="http://www.w3.org/2000/svg" width="26.765" height="26.616" viewBox="0 0 26.765 26.616">
  <g id="red-left" transform="translate(-207.777 -72.206)">
    <path id="Path_1135" data-name="Path 1135" d="M217.585,78.315c-.2.6-.6.6-1.1.6h-5.9c-1.9,0-3.2.6-2.7-1.6a4.331,4.331,0,0,0,.1-.5c.7-2.6,3.6-3.5,5.7-3a3.935,3.935,0,0,1,2.7,1.9C216.685,76.315,217.785,77.515,217.585,78.315Z" fill="#61041b"/>
    <path id="Path_1136" data-name="Path 1136" d="M208.717,75.433c0-.1.2-.3.3-.4l.2-.2a7.524,7.524,0,0,1,5.25-2.623l-.013,0,20.088.022V98.822a18.266,18.266,0,0,1-7.225-1.689c-4.1-2-5.9-6.3-7.4-11-1.6-4.9-4.7-12.9-10.2-11a4.179,4.179,0,0,0-1,.4C208.617,75.633,208.617,75.533,208.717,75.433Z" fill="#ef4d2a"/>
  </g>
</svg>
