<svg xmlns="http://www.w3.org/2000/svg" width="26.765" height="26.616" viewBox="0 0 26.765 26.616">
  <g id="red-right" transform="translate(-256.625 -72.206)">
    <path id="Path_1133" data-name="Path 1133" d="M274.782,75.715a3.935,3.935,0,0,1,2.7-1.9c2.1-.5,5,.4,5.7,3a4.331,4.331,0,0,0,.1.5c.5,2.2-.8,1.6-2.7,1.6h-5.9c-.5,0-.9,0-1.1-.6C273.382,77.515,274.482,76.315,274.782,75.715Z" fill="#61041b"/>
    <path id="Path_1134" data-name="Path 1134" d="M282.45,75.433c0-.1-.2-.3-.3-.4l-.2-.2A7.524,7.524,0,0,0,276.7,72.21l.014,0-20.088.022V98.822a18.266,18.266,0,0,0,7.225-1.689c4.1-2,5.9-6.3,7.4-11,1.6-4.9,4.7-12.9,10.2-11a4.18,4.18,0,0,1,1,.4C282.55,75.633,282.55,75.533,282.45,75.433Z" fill="#db3755"/>
  </g>
</svg>
