<svg width="20" height="18" viewBox="0 0 20 18" fill="none" xmlns="http://www.w3.org/2000/svg">
<path d="M16 11.7225C15.1086 11.7225 14.3069 12.0975 13.7376 12.696L7.08625 9.43954C7.10912 9.28654 7.12487 9.13167 7.12487 8.97229C7.12487 8.81704 7.10987 8.66554 7.08812 8.51667L13.7297 5.29579C14.2994 5.89917 15.1049 6.27792 16 6.27792C17.7257 6.27792 19.1249 4.87879 19.1249 3.15304C19.1249 1.42692 17.7257 0.0281677 16 0.0281677C14.2742 0.0281677 12.8751 1.42692 12.8751 3.15304C12.8751 3.30829 12.8901 3.45942 12.9119 3.60867L6.27025 6.82954C5.70062 6.22617 4.8955 5.84742 4 5.84742C2.27387 5.84742 0.875122 7.24654 0.875122 8.97229C0.875122 10.6984 2.27387 12.0972 4 12.0972C4.89137 12.0972 5.69312 11.7222 6.26237 11.1237L12.9137 14.3802C12.8909 14.5328 12.8751 14.688 12.8751 14.8474C12.8751 16.5735 14.2742 17.9723 16 17.9723C17.7257 17.9723 19.1249 16.5735 19.1249 14.8474C19.1249 13.1213 17.7257 11.7225 16 11.7225Z" fill="white"/>
</svg>
