<svg xmlns="http://www.w3.org/2000/svg" viewBox="0 0 18 22"><path d="M6.9 17.7c-.6 0-1.1-.2-1.5-.6l-.9-.9c-.1-.1-.2-.2-.3-.2H1.7c-.5 0-.8-.4-.8-.8 0-.5.4-.8.8-.8h2.5c.6 0 1.1.2 1.5.6l.9.9c.1.1.2.1.3.1h4.6c.1 0 .2 0 .3-.1l.9-.9c.4-.4.9-.6 1.5-.6h2.5c.5 0 .8.4.8.8 0 .5-.4.8-.8.8h-2.5c-.1 0-.2 0-.3.1l-.9 1c-.4.4-.9.6-1.5.6H6.9zM5 6c-.4 0-.8-.4-.8-.9s.4-.8.8-.8h8.4c.5 0 .8.4.8.8s-.3.9-.8.9H5zm8.4 3.3H5c-.5 0-.8-.4-.8-.8s.4-.9.8-.9h8.4c.5 0 .8.4.8.8s-.3.9-.8.9zm0 3.4H5c-.5 0-.8-.4-.8-.8 0-.5.4-.9.8-.9h8.4c.5 0 .8.4.8.8.1.5-.3.9-.8.9zm1.7 8.4H3.4C2 21.1.9 20 .9 18.6V3.4C.9 2 2 .9 3.4.9h11.8c1.4 0 2.5 1.1 2.5 2.5v15.1c-.1 1.4-1.2 2.6-2.6 2.6zM3.4 2.6c-.5 0-.9.4-.9.8v15.1c0 .5.4.8.8.8h11.8c.5 0 .8-.4.8-.8V3.4c0-.5-.4-.8-.8-.8H3.4z" fill="#db3755"/></svg>