<svg width="141" height="110" viewBox="0 0 141 110" fill="none" xmlns="http://www.w3.org/2000/svg">
<rect width="141" height="110" fill="white"/>
<path d="M123.683 40.9391C122.856 35.3747 120.321 30.1948 116.42 26.0978C112.519 22.0008 107.44 19.1838 101.867 18.0268C97.9061 17.1914 94.3384 15.0798 91.7248 12.0238C87.6236 7.23006 82.2559 3.65447 76.2192 1.69506C70.1825 -0.264353 63.7137 -0.530716 57.5329 0.925621C51.352 2.38196 45.7016 5.50386 41.2106 9.9438C36.7196 14.3837 33.5643 19.9675 32.0958 26.0736C31.4221 28.7552 30.1717 31.2622 28.4297 33.424C26.6876 35.5858 24.4946 37.3519 21.9999 38.602C8.89752 45.3474 2.27208 62.8524 14.2517 79.285C15.8135 81.2385 17.8368 82.7837 20.1441 83.785C24.3804 85.8596 27.6868 89.4126 29.4234 93.7564C30.9198 97.3774 33.2207 100.62 36.1561 103.245C39.0916 105.87 42.5866 107.81 46.383 108.922C50.1794 110.034 54.1802 110.29 58.09 109.67C61.9998 109.05 65.7186 107.571 68.9719 105.341C71.1941 103.81 73.728 102.776 76.3965 102.312C79.0651 101.848 81.804 101.966 84.422 102.656C88.8545 103.842 93.5206 103.888 97.9764 102.79C102.432 101.692 106.529 99.486 109.878 96.3818C113.226 93.2777 115.715 89.3788 117.106 85.0563C118.498 80.7338 118.746 76.1315 117.828 71.6873C116.962 67.2347 117.792 62.6233 120.157 58.7373C123.348 53.3737 124.592 47.0953 123.683 40.9391Z" fill="url(#paint0_linear)"/>
<g clip-path="url(#clip0)">
<path d="M82.3033 49.021H81.2987H78.3639H52.7407H49.693H48.3498C46.3632 49.021 44.7264 50.6384 44.7264 52.629V78.9033C44.7264 80.9053 46.3632 82.5 48.3498 82.5H82.3033C84.3012 82.5 85.9267 80.9053 85.9267 78.9033V52.629C85.9267 50.6384 84.2899 49.021 82.3033 49.021ZM68.3742 64.8104C68.3404 64.8444 68.2839 64.8783 68.2501 64.9009C68.1033 65.0027 67.9114 65.1045 67.7534 65.195C67.5954 65.523 67.4261 66.1677 67.4261 66.8916V73.1236C67.4261 74.1868 66.6698 75.0351 65.5975 75.0351H65.4394C64.3784 75.0351 63.4641 74.1868 63.4641 73.1236V66.8916C63.4641 66.1338 63.3738 65.4778 63.2045 65.1611C63.0803 65.0932 62.9674 65.014 62.8545 64.9235C62.7755 64.8896 62.7078 64.8444 62.6514 64.7765C61.5452 63.9169 60.8227 62.5596 60.8227 61.044C60.8227 58.4313 62.9336 56.3276 65.5297 56.3276C68.1372 56.3276 70.2367 58.4426 70.2367 61.044C70.2367 62.5823 69.503 63.9395 68.3742 64.8104Z" fill="#DB3755"/>
<path d="M65.5748 26.4H65.4507C56.7478 26.4 49.693 33.4351 49.693 42.1555V49.021H52.7407V42.1555C52.7407 35.1204 58.4184 29.3408 65.4394 29.3408H65.5635C72.5958 29.3408 78.3638 35.1204 78.3638 42.1555V49.021H81.2986V42.1555C81.2986 33.4351 74.2777 26.4 65.5748 26.4Z" fill="#F8ABB9"/>
</g>
<path d="M72.6744 3.10671C72.9176 3.90409 73.3553 4.6303 73.9491 5.22155C74.5429 5.81281 75.2745 6.25103 76.0799 6.49772C77.7935 7.05984 77.7935 7.62501 76.0799 8.19323C75.2722 8.43648 74.5374 8.87216 73.9403 9.46189C73.3432 10.0516 72.9021 10.7773 72.6558 11.5751C72.0867 13.2675 71.5144 13.2675 70.9391 11.5751C70.6928 10.7773 70.2517 10.0516 69.6546 9.46189C69.0575 8.87216 68.3228 8.43648 67.515 8.19323C65.8015 7.63112 65.8015 7.06595 67.515 6.49772C68.3228 6.25448 69.0575 5.8188 69.6546 5.22906C70.2517 4.63933 70.6928 3.91363 70.9391 3.11587C71.5206 1.42342 72.099 1.42037 72.6744 3.10671Z" fill="#B2C2D6"/>
<path d="M99.2783 26.1927C99.4481 26.7216 99.7468 27.2011 100.148 27.5894C100.549 27.9777 101.041 28.2628 101.58 28.4198C102.724 28.7986 102.724 29.1744 101.58 29.5471C101.034 29.7092 100.539 30.0027 100.137 30.401C99.7354 30.7994 99.4402 31.2902 99.2783 31.8291C98.8947 32.9595 98.5143 32.9595 98.1369 31.8291C97.9727 31.2973 97.6786 30.8135 97.2806 30.4203C96.8825 30.0272 96.3927 29.7367 95.8542 29.5746C94.7097 29.1958 94.7097 28.82 95.8542 28.4473C96.3927 28.2851 96.8825 27.9947 97.2806 27.6015C97.6786 27.2084 97.9727 26.7246 98.1369 26.1927C98.5266 25.0624 98.9071 25.0624 99.2783 26.1927Z" fill="#B2C2D6"/>
<path d="M22.0463 76.2148C22.251 76.8811 22.6188 77.4874 23.1174 77.9797C23.6159 78.4721 24.2297 78.8355 24.9043 79.0376C26.3334 79.5081 26.3334 79.9785 24.9043 80.449C24.2297 80.6511 23.6159 81.0144 23.1174 81.5068C22.6188 81.9992 22.251 82.6054 22.0463 83.2718C21.57 84.6832 21.0936 84.6832 20.6173 83.2718C20.4126 82.6054 20.0448 81.9992 19.5462 81.5068C19.0477 81.0144 18.4339 80.6511 17.7593 80.449C16.3302 79.9785 16.3302 79.5081 17.7593 79.0376C18.4339 78.8355 19.0477 78.4721 19.5462 77.9797C20.0448 77.4874 20.4126 76.8811 20.6173 76.2148C21.0936 74.8095 21.57 74.8095 22.0463 76.2148Z" fill="#B2C2D6"/>
<path d="M81.2949 103.499C81.4591 104.031 81.7531 104.514 82.1512 104.908C82.5493 105.301 83.0391 105.591 83.5776 105.753C84.722 106.132 84.722 106.508 83.5776 106.881C83.0391 107.043 82.5493 107.333 82.1512 107.726C81.7531 108.12 81.4591 108.603 81.2949 109.135C80.9113 110.266 80.5309 110.266 80.1535 109.135C79.9893 108.603 79.6952 108.12 79.2972 107.726C78.8991 107.333 78.4093 107.043 77.8708 106.881C76.7263 106.502 76.7263 106.126 77.8708 105.753C78.4093 105.591 78.8991 105.301 79.2972 104.908C79.6952 104.514 79.9893 104.031 80.1535 103.499C80.5309 102.375 80.9113 102.375 81.2949 103.499Z" fill="#B2C2D6"/>
<ellipse cx="14.9088" cy="25.0814" rx="14.9088" ry="15" fill="url(#paint1_linear)"/>
<path fill-rule="evenodd" clip-rule="evenodd" d="M7.74945 30.1482C7.2453 30.6548 7.2453 31.4793 7.74945 31.9862C8.25325 32.4933 9.07267 32.4933 9.57304 31.9862L9.93718 31.6233L11.4557 33.1507C11.7153 33.4124 12.1315 33.4124 12.3915 33.1507L14.6545 30.874C14.9145 30.6128 14.9145 30.1939 14.6545 29.9323L13.1363 28.4049L15.8408 25.6804C16.4196 25.9812 17.0792 26.1511 17.7751 26.1511C20.1093 26.1511 22.0013 24.2478 22.0013 21.8992C22.0013 19.5508 20.1093 17.6472 17.7751 17.6472C15.4408 17.6472 13.549 19.5508 13.549 21.8992C13.549 22.5993 13.718 23.263 14.0169 23.8453L7.74945 30.1482ZM16.1497 21.8992C16.1497 20.9965 16.878 20.2637 17.7751 20.2637C18.6723 20.2637 19.4005 20.9965 19.4005 21.8992C19.4005 22.8019 18.6723 23.5345 17.7751 23.5345C16.878 23.5345 16.1497 22.8018 16.1497 21.8992Z" fill="url(#paint2_linear)"/>
<ellipse cx="124.599" cy="78.5" rx="16.4015" ry="16.5" fill="url(#paint3_linear)"/>
<path fill-rule="evenodd" clip-rule="evenodd" d="M117.083 70.2779V87.7222C117.083 88.6859 117.794 89.4665 118.672 89.4665H131.983C132.531 89.4665 132.976 88.9781 132.976 88.3763C132.976 87.7744 132.531 87.286 131.983 87.286H119.864C119.427 87.286 119.069 86.8933 119.069 86.4137C119.069 85.9343 119.427 85.5417 119.864 85.5417H131.387C132.265 85.5417 132.976 84.7608 132.976 83.797V70.2779C132.976 69.3142 132.265 68.5336 131.387 68.5336H125.824V76.3792C125.824 76.4925 125.784 76.6057 125.709 76.693C125.554 76.863 125.299 76.863 125.144 76.693C125.041 76.5751 123.44 75.1143 123.44 75.1143C123.44 75.1143 121.839 76.5751 121.735 76.693C121.581 76.863 121.326 76.863 121.171 76.693C121.096 76.6057 121.056 76.4925 121.056 76.3792V68.5336H118.672C117.794 68.5336 117.083 69.3142 117.083 70.2779Z" fill="url(#paint4_linear)"/>
<defs>
<linearGradient id="paint0_linear" x1="65.9765" y1="0" x2="65.9765" y2="110" gradientUnits="userSpaceOnUse">
<stop stop-color="#DFE2F1"/>
<stop offset="1" stop-color="#D9D9D9" stop-opacity="0"/>
</linearGradient>
<linearGradient id="paint1_linear" x1="9.93919" y1="40.0814" x2="35.3864" y2="33.8129" gradientUnits="userSpaceOnUse">
<stop offset="0.0201382" stop-color="#FF9B21"/>
<stop offset="1" stop-color="#FF9B21"/>
</linearGradient>
<linearGradient id="paint2_linear" x1="7.4361" y1="31.6845" x2="23.764" y2="12.6579" gradientUnits="userSpaceOnUse">
<stop stop-color="white"/>
<stop offset="1" stop-color="white" stop-opacity="0"/>
</linearGradient>
<linearGradient id="paint3_linear" x1="119.131" y1="95" x2="147.126" y2="88.1031" gradientUnits="userSpaceOnUse">
<stop offset="0.0201382" stop-color="#13A9FE"/>
<stop offset="1" stop-color="#9AC0FF"/>
</linearGradient>
<linearGradient id="paint4_linear" x1="125.029" y1="68.5336" x2="125.029" y2="102" gradientUnits="userSpaceOnUse">
<stop offset="0.116057" stop-color="white"/>
<stop offset="1" stop-color="white" stop-opacity="0"/>
</linearGradient>
<clipPath id="clip0">
<rect width="41.2002" height="56.1" fill="white" transform="translate(44.7264 26.4)"/>
</clipPath>
</defs>
</svg>
